<svg version="1.1" id="Layer_1" xmlns="http://www.w3.org/2000/svg" xmlns:xlink="http://www.w3.org/1999/xlink" x="0px" y="0px"
	 width="100%" viewBox="0 0 1024 1024" enable-background="new 0 0 1024 1024" xml:space="preserve">
<path fill="#000000" opacity="1.000000" stroke="none" 
	d="
M607.730652,703.717651 
	C604.444946,706.322327 601.292053,708.539429 598.481995,711.128540 
	C583.617188,724.825562 564.867554,728.953857 545.911926,732.118286 
	C517.179626,736.914734 488.580261,735.779846 460.086304,729.416260 
	C444.075653,725.840515 429.888611,719.190918 417.762787,708.162109 
	C412.142242,703.050110 405.706055,699.586914 398.488922,697.035950 
	C383.367065,691.691345 370.380951,682.656738 358.459076,672.062256 
	C357.187836,670.932495 355.289154,670.090637 355.390717,667.834167 
	C357.310425,666.598755 358.973877,667.797485 360.616577,668.315796 
	C373.635345,672.423462 386.540161,676.904663 400.077820,679.160217 
	C407.992249,680.478821 415.966919,680.335083 423.928741,680.662170 
	C431.204620,680.961243 437.975067,683.056091 444.420990,686.454834 
	C454.894135,691.976929 465.644104,696.923157 476.909576,700.616394 
	C484.421234,703.078979 491.567657,702.459045 498.558899,696.999084 
	C481.493958,678.917175 469.153748,657.986816 456.544006,636.854919 
	C452.178284,639.721802 449.263885,643.559753 446.021576,647.005554 
	C443.507202,649.677673 441.413818,650.855042 439.104156,646.873169 
	C438.547272,645.913086 437.545074,645.130371 436.595642,644.492310 
	C431.036041,640.755676 431.067200,640.820374 435.437134,635.998657 
	C438.785980,632.303650 441.998688,628.485291 445.227325,624.773132 
	C440.987885,617.844482 429.164520,607.452820 423.346863,605.535461 
	C416.708893,613.948669 409.844513,622.097168 405.880920,632.486450 
	C396.562134,656.912292 375.053436,665.168457 351.109711,654.502441 
	C335.651276,647.616394 325.462646,636.287292 320.676575,620.186462 
	C318.734894,613.654480 315.672180,607.807312 311.294098,602.745667 
	C302.526245,592.608826 298.091339,580.596436 294.943604,567.827881 
	C285.577576,529.835083 286.291534,492.019318 296.212677,454.246857 
	C299.404846,442.093323 304.666229,431.166962 313.397552,422.003632 
	C316.419830,418.831818 318.193939,415.043121 319.552032,410.780090 
	C323.366119,398.807526 329.916656,388.258484 337.250092,378.272644 
	C339.876678,379.299438 339.199310,381.000916 338.976318,382.329620 
	C336.261871,398.502411 335.405640,414.722321 336.960724,431.090607 
	C337.450684,436.247772 336.115082,441.344421 334.399963,446.260254 
	C330.341492,457.892273 326.285706,469.525269 322.246002,481.163849 
	C320.587952,485.940613 319.994263,490.859711 320.195068,495.913666 
	C320.328491,499.272461 321.913025,501.683990 324.795929,503.084259 
	C327.448761,504.372833 328.670715,501.740967 330.153503,500.437195 
	C345.684875,486.781036 362.382233,474.599854 378.632263,461.851746 
	C383.786652,457.808197 383.638031,457.507721 378.933563,452.717316 
	C374.264771,447.963257 369.506378,443.294464 364.925842,438.457062 
	C350.752777,423.489258 346.600037,405.319733 348.202026,385.368713 
	C348.428314,382.550751 348.915985,379.753784 349.142303,376.935822 
	C350.716522,357.334656 364.525970,347.641754 379.807922,339.267609 
	C384.611267,336.635437 389.577576,333.988098 394.797363,332.493652 
	C405.517059,329.424469 414.487335,323.650391 422.422516,316.162140 
	C433.572174,305.640472 447.491913,301.273315 461.868713,298.030945 
	C497.799255,289.927643 533.569824,290.580750 569.093262,300.608826 
	C579.155823,303.449463 588.423584,307.654175 596.206909,314.920441 
	C604.650879,322.803436 614.150635,328.800140 625.182068,332.933777 
	C639.668579,338.362122 651.801880,347.949554 663.312866,358.188324 
	C664.043823,358.838440 664.875427,359.501770 664.485901,360.999542 
	C661.473694,361.443726 658.792847,359.998322 656.109009,358.993164 
	C642.488770,353.891846 628.568115,350.128784 614.067200,348.500397 
	C607.093872,347.717316 600.135498,348.844482 593.131226,347.797729 
	C582.378845,346.190796 573.903015,339.605011 564.261353,335.610321 
	C556.414246,332.359100 548.687561,328.816956 540.406677,326.735474 
	C535.171936,325.419678 530.141724,325.928558 525.374084,328.436737 
	C522.810486,329.785370 521.419434,331.565674 523.863464,334.329590 
	C538.507874,350.890991 549.927002,369.696564 561.468811,388.417236 
	C561.979004,389.244720 562.667847,389.962158 563.403381,390.895752 
	C567.648560,387.507111 570.759827,383.388489 574.041260,379.457001 
	C576.052124,377.047791 577.610596,376.708954 580.116394,379.042389 
	C590.594116,388.799042 589.797607,385.185577 580.895813,395.707642 
	C578.653076,398.358582 576.198120,400.830017 573.710083,403.525421 
	C581.201294,409.477997 586.421265,417.467407 594.343018,422.038696 
	C604.290649,412.722229 610.008057,401.376404 615.998718,389.731018 
	C625.056702,372.122925 640.877441,364.517609 661.422607,371.026581 
	C679.178406,376.651855 692.953308,386.705780 698.351562,405.657684 
	C700.186279,412.098877 702.838623,418.158813 707.392761,423.260498 
	C719.186279,436.471985 723.778992,452.731262 726.803589,469.623169 
	C733.606201,507.614868 732.304260,545.101257 720.464111,582.101135 
	C717.494812,591.380005 711.359314,598.265442 705.670715,605.588196 
	C702.763611,609.330383 700.554016,613.259827 699.117188,617.797302 
	C695.769897,628.368286 690.312866,637.906555 684.042297,646.996338 
	C683.299377,648.073303 682.586792,649.243896 681.057312,649.368225 
	C679.227234,648.327698 679.964539,646.721191 680.158386,645.351074 
	C682.497070,628.820129 683.501831,612.275757 682.218079,595.556702 
	C681.752808,589.496948 684.058838,583.760010 686.482361,577.915710 
	C692.383423,563.685120 698.304810,549.272278 698.715820,533.452026 
	C698.764587,531.575989 698.314636,529.835083 697.513428,528.147522 
	C695.737610,524.407043 693.621399,523.766052 690.258728,526.670959 
	C673.994751,540.721191 657.009216,553.886780 640.037048,567.058655 
	C636.384766,569.893188 636.084900,571.912048 639.550781,575.210022 
	C647.272278,582.557678 655.284668,589.862610 660.828247,598.995361 
	C674.280518,621.157349 674.531799,644.438782 664.554688,667.920898 
	C660.674744,677.052612 651.626831,681.157227 643.838867,686.098633 
	C634.840271,691.808167 625.227173,696.500244 614.931335,699.569092 
	C612.316406,700.348572 610.186707,701.948547 607.730652,703.717651 
M513.614746,705.749695 
	C514.911804,704.719299 516.427429,703.870667 517.464417,702.623962 
	C520.408325,699.084656 523.417969,698.048584 527.828003,700.476746 
	C532.252380,702.912842 537.146057,702.393005 541.922485,700.828918 
	C554.466492,696.721252 566.500916,691.442993 578.159668,685.281006 
	C585.410400,681.448669 593.474854,679.887695 601.328613,680.047485 
	C613.909790,680.303528 625.794434,678.360229 637.128174,673.143677 
	C642.563538,670.642029 647.614624,667.427979 650.351990,661.228699 
	C646.126526,661.885071 642.450867,660.797424 639.011353,659.143860 
	C627.548950,653.633728 618.302307,645.793457 613.614868,633.573730 
	C609.417480,622.631592 602.511780,613.692505 594.105286,605.622009 
	C586.384949,610.536621 580.804504,617.117188 574.674316,623.585999 
	C577.208191,626.608398 579.472290,629.462341 581.897095,632.172546 
	C589.341797,640.493225 589.293945,640.391174 581.026245,647.743896 
	C578.299927,650.168457 576.586487,650.206299 574.153870,647.255676 
	C570.946289,643.365051 568.188782,638.946777 563.497314,635.809326 
	C548.943054,661.124084 534.241943,685.933716 512.409851,706.305603 
	C507.454041,709.850891 502.610779,713.568726 496.671234,715.930176 
	C500.552826,719.869873 504.097656,723.359741 507.510193,726.974487 
	C509.381226,728.956482 510.724579,728.479553 512.463257,726.727844 
	C515.952637,723.212585 519.648315,719.902100 523.531677,716.250488 
	C520.748352,714.674622 518.828430,713.704407 517.032776,712.542053 
	C514.673645,711.014832 511.952423,709.618347 513.614746,705.749695 
M471.601562,366.150543 
	C479.155365,353.461273 488.154938,341.764374 497.237396,329.904053 
	C489.622650,325.237854 482.282532,325.011200 474.679077,327.905121 
	C465.182617,331.519531 455.880096,335.548676 446.771576,340.079712 
	C435.525360,345.674194 424.353516,350.301147 410.887726,348.649109 
	C399.593994,347.263580 388.464355,350.935425 378.486694,356.917175 
	C374.018738,359.595764 370.164581,362.877716 368.407318,368.266266 
	C372.069794,366.558807 372.407898,366.422638 376.094604,367.558167 
	C389.242249,371.607544 399.303314,379.760681 404.315369,392.471771 
	C408.854706,403.984070 416.059387,413.438354 423.548615,423.055786 
	C429.197815,419.921997 433.839111,415.658691 438.219391,411.075684 
	C445.399231,403.563416 445.394836,403.559235 438.345917,395.831970 
	C430.256683,386.964417 430.361694,387.080750 439.157257,379.141907 
	C442.069214,376.513580 443.690857,377.027985 445.980133,379.777588 
	C449.139740,383.572510 451.961945,387.725800 456.264679,391.168762 
	C461.354126,382.867035 466.287994,374.819153 471.601562,366.150543 
M491.309296,488.803986 
	C483.938934,496.267487 476.625763,503.788910 469.162506,511.158325 
	C466.991119,513.302429 466.394867,514.834351 468.885223,517.275208 
	C481.495392,529.634827 494.007385,542.095886 506.445343,554.629028 
	C508.902649,557.105164 510.974518,556.983765 513.249512,554.729736 
	C525.670349,542.423523 538.288940,530.315430 550.214722,517.514160 
	C552.446777,515.118286 552.137817,513.439270 549.924316,511.250854 
	C537.486877,498.954224 525.095703,486.609344 512.827515,474.144318 
	C510.241699,471.517059 508.319977,471.421600 505.810028,474.063568 
	C501.223511,478.891235 496.470154,483.560486 491.309296,488.803986 
M639.664368,453.112122 
	C635.785767,455.985229 636.295105,458.676636 639.962463,461.295166 
	C640.908081,461.970306 641.730469,462.815369 642.639587,463.544708 
	C658.621643,476.365326 675.038879,488.649994 690.450684,502.169312 
	C692.553345,504.013855 693.779114,503.618164 695.399292,501.859619 
	C699.656128,497.239471 699.265381,491.708191 698.188293,486.271759 
	C695.620117,473.309540 690.907043,461.006958 685.812988,448.872314 
	C683.051636,442.294342 681.646606,435.725098 682.368530,428.498932 
	C683.127625,420.900146 683.520752,413.178711 681.575012,405.633789 
	C680.197998,400.293945 677.007019,396.417114 672.071350,393.774475 
	C671.691772,394.537292 671.567383,394.680756 671.552063,394.835022 
	C671.420776,396.157715 671.321777,397.483643 671.189880,398.806274 
	C669.911926,411.629608 666.553772,423.635773 658.077209,433.804688 
	C652.512390,440.480530 646.210022,446.423187 639.664368,453.112122 
M368.413330,559.112793 
	C355.256104,548.361145 342.003387,537.722961 329.005096,526.782471 
	C325.513214,523.843445 323.601868,524.591187 321.748993,528.117554 
	C319.089874,533.178345 319.627228,538.558655 320.799622,543.739441 
	C323.305847,554.814514 327.652893,565.308716 332.077118,575.719604 
	C335.134003,582.912964 336.821716,590.145569 336.384430,598.023621 
	C335.970398,605.482361 335.435089,613.037231 337.358246,620.404846 
	C338.847504,626.110413 341.710449,630.858093 347.483368,633.872437 
	C347.848572,631.446960 348.270416,629.652222 348.368103,627.839966 
	C349.271149,611.084351 356.879059,597.667542 368.798218,586.327332 
	C372.780304,582.538574 376.502899,578.475891 380.509064,574.714050 
	C382.951599,572.420410 382.825104,570.614746 380.278320,568.618286 
	C376.476501,565.638000 372.742218,562.571655 368.413330,559.112793 
M497.411377,459.563873 
	C495.265900,454.854401 490.966064,452.041718 487.539337,448.479370 
	C482.428986,443.166748 482.306641,443.223175 477.066071,448.462189 
	C456.588593,468.933716 436.125854,489.419983 415.683502,509.926514 
	C414.299316,511.315063 412.556885,512.458557 411.875732,514.760010 
	C414.448822,518.742065 418.263397,521.747192 421.697418,525.070801 
	C427.418396,530.607788 427.183228,530.182983 433.045776,525.136353 
	C438.905121,520.092407 441.910858,512.540649 447.914948,508.038239 
	C458.108917,500.394012 466.938385,491.396881 475.811707,482.414398 
	C483.049896,475.087158 490.854614,468.297455 497.411377,459.563873 
M450.043335,553.456970 
	C459.766388,563.024902 469.581055,572.502380 479.159424,582.213013 
	C482.234406,585.330505 484.393738,585.349060 487.184021,581.986877 
	C490.043335,578.541504 493.263916,575.382812 496.462219,572.236816 
	C498.455597,570.276001 498.331146,568.734863 496.382263,566.820923 
	C483.445343,554.115784 470.554352,541.363770 457.686859,528.588318 
	C455.677612,526.593384 453.758820,526.241516 451.661957,528.304199 
	C448.105621,531.802612 444.556427,535.308472 441.024750,538.831787 
	C439.136993,540.715027 439.210815,542.509338 441.160187,544.403625 
	C444.022400,547.184998 446.760834,550.093750 450.043335,553.456970 
M521.703979,460.194305 
	C534.312988,474.568939 548.589417,487.310150 561.783020,501.112000 
	C563.653564,503.068756 565.228333,502.336304 566.854736,500.709808 
	C570.026245,497.538177 573.065613,494.187469 576.535034,491.373749 
	C579.963501,488.593231 580.045410,486.518677 576.860657,483.417206 
	C564.484070,471.364288 552.313660,459.099884 540.021301,446.959900 
	C538.776123,445.730164 537.643066,444.136414 535.150024,444.102905 
	C531.233704,449.578217 524.755981,453.046204 521.703979,460.194305 
M548.112976,541.612915 
	C540.096924,549.578674 532.140259,557.605713 524.030334,565.474731 
	C521.426208,568.001465 521.259399,569.931580 524.072266,572.398193 
	C526.938721,574.911804 529.654053,577.644775 532.133972,580.540039 
	C535.039185,583.931641 537.464294,584.042297 540.720764,580.824890 
	C548.283936,573.352295 556.366272,566.395203 563.768799,558.773254 
	C569.276978,553.101807 575.385864,547.947388 579.320435,542.743042 
	C574.032166,536.843811 569.097839,531.339417 564.025818,525.681335 
	C558.676575,531.039246 553.646301,536.077576 548.112976,541.612915 
M393.914978,419.369202 
	C393.927277,417.536835 393.879608,415.701752 393.961609,413.872498 
	C394.504730,401.754395 389.483917,392.633209 379.190277,386.337952 
	C374.746674,383.620392 369.636047,382.972046 364.822357,381.390106 
	C358.194305,402.948273 373.972473,437.805786 391.574249,440.079010 
	C392.338715,433.496063 393.103485,426.910706 393.914978,419.369202 
M648.825073,645.622437 
	C650.877502,646.007690 653.010681,646.178467 654.539062,648.135193 
	C659.215271,621.741272 651.692993,605.515381 628.173401,586.730347 
	C627.031128,595.738403 624.874573,604.444336 624.933472,613.494080 
	C625.042114,630.191711 632.233215,640.291809 648.825073,645.622437 
M625.892212,403.658478 
	C623.357788,416.304382 626.817871,428.463684 628.139282,441.295898 
	C646.855774,427.521027 660.227234,409.285645 655.416077,386.001740 
	C642.438721,382.125061 631.803284,388.269440 625.892212,403.658478 
M394.597290,610.761047 
	C393.643646,603.075562 392.896515,595.355408 391.189484,587.951416 
	C389.193176,587.515076 388.285004,588.613708 387.326630,589.478577 
	C380.134430,595.969299 373.449066,602.897217 368.604858,611.397278 
	C363.745117,619.924561 362.176575,629.100464 363.091461,638.796997 
	C363.307007,641.081482 364.165192,642.447083 366.650482,642.763977 
	C373.979340,643.698486 380.454956,642.371704 385.894196,636.877869 
	C392.892944,629.808838 394.496246,621.021790 394.597290,610.761047 
M640.945190,506.460052 
	C637.821045,509.028625 633.741638,510.501495 631.459778,514.467529 
	C639.080200,522.244385 648.067566,527.421509 657.849060,531.401489 
	C658.788757,531.783813 659.396790,531.566589 660.080322,531.026306 
	C666.942871,525.602295 674.050781,520.463745 680.660400,514.023682 
	C677.508057,511.449646 674.854614,509.228363 672.144165,507.078949 
	C658.205139,496.025238 661.677979,493.809387 642.375183,505.507660 
	C642.091125,505.679871 641.826477,505.883942 640.945190,506.460052 
M339.771667,515.988464 
	C345.045715,520.319031 350.380432,524.578735 355.564575,529.014282 
	C357.708771,530.848877 359.636963,530.981262 362.357147,530.196228 
	C370.405304,527.873474 377.025726,523.266785 383.479919,518.213257 
	C387.035217,515.429504 386.384827,513.270020 383.123169,510.824829 
	C376.586273,505.924408 370.031677,501.177307 362.310303,498.126129 
	C360.010559,497.217346 358.591797,496.768921 356.668671,498.419495 
	C351.364655,502.971832 345.955963,507.401947 340.618347,511.915466 
	C339.536835,512.830017 337.904175,513.659607 339.771667,515.988464 
M534.549438,608.264832 
	C530.277771,612.911133 526.042908,617.592041 521.718384,622.188660 
	C519.652222,624.384888 519.653809,626.310181 521.519958,628.729187 
	C525.084351,633.349609 527.624512,638.603577 530.266785,643.792358 
	C531.787415,646.778503 532.374329,650.259399 535.028931,653.488708 
	C538.345581,648.075500 541.506531,643.229309 544.341614,638.199341 
	C547.065002,633.367493 553.062439,629.031372 551.764526,623.649597 
	C550.541382,618.578186 544.823425,615.008667 540.691711,611.163391 
	C539.120605,609.701233 538.065613,607.055115 534.549438,608.264832 
M547.707275,394.736908 
	C543.250244,388.301544 539.940552,381.051605 534.180298,374.667755 
	C530.468567,384.353607 526.013245,392.688446 520.729675,400.568909 
	C519.283142,402.726379 520.166931,404.407745 521.570068,405.932434 
	C525.287842,409.972107 529.138733,413.889160 532.867004,417.919434 
	C534.929810,420.149384 536.764526,419.936890 538.758606,417.840698 
	C541.970337,414.464508 545.065063,410.937164 548.573608,407.893829 
	C552.474548,404.510193 553.096191,401.260803 549.521362,397.387604 
	C548.963562,396.783264 548.578613,396.019348 547.707275,394.736908 
M488.505890,382.877380 
	C487.468689,380.134552 486.431458,377.391693 485.135040,373.963470 
	C478.733246,383.827698 472.639069,393.217957 466.389984,402.846863 
	C470.658844,408.394135 476.132812,413.268494 481.287628,418.443024 
	C482.757660,419.918701 484.245331,419.883270 485.624481,418.442566 
	C490.532776,413.315094 495.395020,408.143494 500.171387,403.097687 
	C495.462250,396.598022 491.893890,390.225983 488.505890,382.877380 
M498.846863,623.649719 
	C494.744446,619.289001 490.549133,615.010803 486.574280,610.536743 
	C484.181122,607.842957 482.312225,608.160400 480.061615,610.663513 
	C475.509399,615.726501 470.810822,620.657898 466.143585,625.674744 
	C473.222290,634.687500 478.565887,644.567749 485.229126,654.081055 
	C487.723419,644.607971 492.293915,636.918823 497.382690,629.477539 
	C498.445496,627.923401 500.420044,626.604370 498.846863,623.649719 
M503.009583,378.528168 
	C504.865265,381.898010 505.929047,385.843903 509.521545,388.012939 
	C517.455261,380.062225 519.179443,369.427094 523.231201,359.927551 
	C523.437500,359.443848 523.179199,358.559906 522.836487,358.074707 
	C518.659180,352.160187 514.479065,346.238403 508.830292,341.249084 
	C502.100861,347.222260 498.309845,354.622406 493.159912,362.211761 
	C496.907257,361.168793 497.093109,363.510345 497.800110,365.342682 
	C499.411743,369.519775 501.042908,373.689270 503.009583,378.528168 
M398.501099,560.651184 
	C404.037750,554.302185 409.574402,547.953247 415.039856,541.685913 
	C410.223114,536.704346 405.638672,531.925110 401.007202,527.191833 
	C399.154419,525.298279 397.611237,526.217957 395.859985,527.657654 
	C390.083771,532.406189 384.365234,537.251709 377.712341,540.804626 
	C374.958893,542.275085 374.623779,544.057251 377.153992,546.162903 
	C383.157867,551.159241 389.167480,556.149902 395.094238,561.236694 
	C396.307220,562.277771 397.103546,562.051758 398.501099,560.651184 
M513.463867,644.094971 
	C512.258789,642.581116 511.792206,640.404968 509.465118,639.683594 
	C507.530365,640.768738 506.431030,642.616821 505.395538,644.515137 
	C502.114319,650.530640 499.239899,656.689087 497.997711,663.518188 
	C497.624237,665.571594 497.467529,668.559570 492.942230,665.619934 
	C498.937256,673.076355 503.164886,680.262695 509.682739,686.086792 
	C515.597778,680.697815 520.375183,675.059692 523.666382,669.238770 
	C520.242493,660.613831 518.656494,651.971680 513.463867,644.094971 
M607.432861,546.084229 
	C612.679993,550.903503 617.218445,556.386475 621.922913,561.946411 
	C629.166382,555.449890 637.352478,550.415222 644.239746,542.812805 
	C635.742920,537.699890 628.430298,532.295349 621.383972,526.529785 
	C620.406311,525.729797 619.280457,525.582458 618.210144,526.517944 
	C612.861633,531.192627 607.478577,535.833862 603.489807,541.449036 
	C604.180664,543.692322 605.728394,544.494934 607.432861,546.084229 
M389.262238,496.194275 
	C391.079193,497.640167 392.962708,499.010986 394.698486,500.548492 
	C397.725616,503.229950 400.496094,503.238708 403.351929,500.243835 
	C406.212585,497.243866 409.249725,494.412933 412.171814,491.470490 
	C413.567230,490.065369 414.459229,488.414551 412.847931,486.660919 
	C407.172241,480.483734 401.161530,474.609497 396.567017,467.378571 
	C392.184113,470.810669 388.276031,473.616913 384.668915,476.767700 
	C381.118713,479.868774 376.861267,482.203430 373.763092,486.161896 
	C379.062195,489.312653 384.193604,492.054047 389.262238,496.194275 
M612.211853,477.707306 
	C609.462402,480.987091 605.655518,483.369751 603.599548,487.822906 
	C608.036621,492.255768 612.493103,496.702118 616.942017,501.156158 
	C618.351257,502.567017 619.731689,502.572357 621.366516,501.408691 
	C627.738281,496.873413 634.161194,492.409943 640.571411,487.928864 
	C642.379456,486.664886 643.153931,485.049377 641.306580,483.424774 
	C634.985718,477.865784 628.684692,472.258789 621.553894,467.694824 
	C618.351074,471.127502 615.522644,474.158905 612.211853,477.707306 
M599.848083,468.345703 
	C603.656616,464.827820 607.021606,460.956818 609.451843,456.335083 
	C610.672363,454.013947 610.902466,452.121307 608.128052,450.524811 
	C604.101257,448.207611 600.259338,445.567780 596.353455,443.042572 
	C594.832031,442.058899 593.596008,441.624695 592.029114,443.290070 
	C587.480225,448.124634 582.742859,452.782043 578.072205,457.501831 
	C576.766602,458.821259 576.037415,460.146576 577.688416,461.747925 
	C582.307983,466.228516 586.908691,470.728607 591.797852,475.494934 
	C594.399353,473.191376 596.865540,471.007629 599.848083,468.345703 
M437.924866,455.548462 
	C433.793182,451.233063 429.661530,446.917664 425.388123,442.454254 
	C419.469910,446.006134 414.412048,449.769836 408.363281,452.076996 
	C409.505981,459.891327 414.000580,465.370117 419.136505,470.420288 
	C427.159332,478.309174 425.008270,478.054199 432.721741,470.752838 
	C434.655914,468.921997 436.445374,466.938812 438.366364,465.093323 
	C441.515594,462.067871 442.447418,459.085022 437.924866,455.548462 
M604.219116,579.679260 
	C606.297180,578.395813 608.375183,577.112366 610.501709,575.799011 
	C608.400452,568.983826 603.936584,564.221313 599.228149,559.806396 
	C590.577271,551.694824 592.427673,551.845276 584.406738,560.042725 
	C575.678345,568.963257 575.732239,569.015991 584.560547,577.675232 
	C593.267273,586.215271 593.267273,586.215271 604.219116,579.679260 
M424.893311,554.585815 
	C418.859436,560.070190 412.938019,565.654175 409.462097,573.245300 
	C408.549561,575.238159 407.556183,577.222473 410.504120,578.649841 
	C414.530029,580.599060 418.457855,582.753418 422.400696,584.870239 
	C423.677795,585.555908 424.795624,585.908508 425.967407,584.664429 
	C430.631470,579.712830 435.339203,574.802307 440.007141,569.854309 
	C441.335052,568.446655 441.533325,567.023987 439.996185,565.529663 
	C436.306335,561.942505 432.692596,558.277039 428.998444,554.694519 
	C427.998535,553.724792 426.790344,553.160095 424.893311,554.585815 
M440.982239,598.545288 
	C445.717285,603.585999 450.452362,608.626770 455.516235,614.017578 
	C460.620392,608.617310 464.841034,604.164978 469.045319,599.697388 
	C470.748077,597.888000 471.285675,596.085876 469.165100,594.111938 
	C464.536835,589.803833 459.965729,585.434265 455.386078,581.074158 
	C454.267120,580.008911 453.150818,579.668945 451.907471,580.840454 
	C447.090057,585.379700 442.273071,589.919312 437.653412,594.272644 
	C437.899658,596.465088 439.361542,597.137268 440.982239,598.545288 
M558.131958,419.674500 
	C555.170227,422.834717 552.229065,426.014648 549.237000,429.145844 
	C547.950012,430.492706 547.157410,431.779083 548.817261,433.396301 
	C553.926514,438.374359 559.021118,443.367432 564.409058,448.635956 
	C570.291321,443.100525 575.804565,437.912354 581.602173,432.456665 
	C575.239136,426.438141 569.249634,420.772919 562.150818,414.058441 
	C560.902100,415.872101 559.761780,417.528412 558.131958,419.674500 
M439.919800,435.842224 
	C443.806061,439.488403 447.710999,443.115021 451.569214,446.790619 
	C453.058929,448.209839 454.443024,448.997192 456.242401,447.203674 
	C461.174530,442.287506 466.729126,437.998962 471.572449,432.204590 
	C467.320160,427.829193 463.062103,423.651794 459.053253,419.247528 
	C456.598755,416.550903 454.430786,416.360291 452.021332,419.066376 
	C447.486359,424.159698 442.960114,429.260834 438.348816,434.450409 
	C438.009796,434.139740 438.720947,434.791382 439.919800,435.842224 
M556.975891,605.517395 
	C559.235718,607.679932 561.495483,609.842468 564.029419,612.267273 
	C569.809998,606.127197 575.347473,600.245483 580.840637,594.410767 
	C575.473694,590.009033 570.593872,584.100769 563.425964,579.070312 
	C560.950562,581.906860 558.779785,584.650085 556.346497,587.136353 
	C547.608093,596.065063 547.574585,596.032227 556.975891,605.517395 
M597.010498,503.500946 
	C590.375061,497.503113 592.393433,496.576447 585.248596,503.533264 
	C584.176575,504.577118 583.145325,505.663055 582.099060,506.733307 
	C573.762939,515.260315 573.949951,513.034424 582.100830,521.414917 
	C591.085083,530.652283 591.188538,530.654175 600.452576,521.508301 
	C609.265930,512.807495 607.951050,514.113403 600.351501,506.801727 
	C599.392944,505.879486 598.459595,504.930969 597.010498,503.500946 
M509.434784,416.778259 
	C504.021179,420.472565 500.302368,425.873962 495.726624,430.412323 
	C494.286560,431.840607 494.445618,433.295654 495.894775,434.747803 
	C499.539734,438.400269 503.117584,442.119598 506.738342,445.796356 
	C508.502411,447.587646 510.164703,447.382660 511.885315,445.613403 
	C516.165771,441.212006 520.510559,436.873108 525.299500,432.034210 
	C520.169373,426.980530 515.094971,421.981720 509.434784,416.778259 
M518.711365,603.221191 
	C525.318542,595.861023 525.318542,595.861023 518.973511,589.428162 
	C510.202698,580.535950 510.124725,580.460144 501.559875,589.274963 
	C494.207184,596.842285 492.883453,594.872314 501.513214,603.708862 
	C509.889679,612.285889 509.910248,612.265808 518.711365,603.221191 
M710.410400,521.057861 
	C711.657471,522.324768 712.068115,524.327393 713.576965,524.963745 
	C717.546021,521.296143 721.378540,517.754578 725.383484,514.053711 
	C721.410095,509.714233 717.777466,505.746887 714.130554,501.763977 
	C704.216919,511.909821 704.022156,512.848206 710.410400,521.057861 
M304.342834,525.532532 
	C306.424072,524.986755 314.162476,516.027893 313.983521,514.297424 
	C313.936127,513.839172 313.659637,513.357910 313.368835,512.978882 
	C310.783295,509.609222 308.170929,506.260223 305.379150,502.663849 
	C301.289795,506.349030 297.651550,510.074677 294.525635,514.663452 
	C297.737854,518.253601 300.810333,521.687561 304.342834,525.532532 
M503.918060,315.439178 
	C506.151489,316.218170 507.231628,320.018463 510.052551,318.629944 
	C513.961975,316.705627 517.501343,314.029541 521.579041,311.433472 
	C517.807800,306.731415 513.762634,303.212555 509.940125,299.717834 
	C509.176727,300.064087 508.811493,300.131195 508.589050,300.346100 
	C506.566345,302.300385 504.566345,304.278229 502.563904,306.253418 
	C497.853729,310.899475 497.894409,311.359283 503.918060,315.439178 
M578.845093,711.783508 
	C586.790283,712.702637 592.169373,708.755554 596.736389,702.789612 
	C585.946167,699.095764 580.103638,706.423706 573.612122,712.310120 
	C575.086975,712.149841 576.561768,711.989563 578.845093,711.783508 
M444.894531,711.792236 
	C445.220276,711.746033 445.554413,711.728455 445.866791,711.636780 
	C445.965363,711.607849 446.091400,711.285645 446.060577,711.257874 
	C443.981750,709.385437 441.778229,707.637939 439.817444,705.650757 
	C434.927521,700.695129 429.160065,701.936035 422.970123,702.503601 
	C428.423279,710.580933 435.920807,712.180298 444.894531,711.792236 
M443.362244,316.194031 
	C435.815216,315.919769 428.936279,317.048859 424.922333,324.725494 
	C431.703430,327.060425 442.677307,322.971375 445.295868,317.250702 
	C445.647156,316.483215 444.643097,316.345367 443.362244,316.194031 
M576.885498,318.958344 
	C582.645996,323.586029 588.368225,328.340790 596.677368,325.118011 
	C592.126160,317.940796 585.216248,316.437775 577.687378,316.353943 
	C576.122314,316.336487 574.111938,316.260315 576.885498,318.958344 
M313.064117,448.941254 
	C317.978882,443.561523 320.470825,437.667358 316.979126,430.502716 
	C310.864136,434.793060 308.614746,444.535004 313.064117,448.941254 
M708.775208,441.651794 
	C709.232788,436.354919 706.607361,432.694336 702.773743,429.566437 
	C698.921875,437.970123 702.782776,443.897614 708.793091,450.453705 
	C708.793091,447.068268 708.793091,444.795990 708.775208,441.651794 
M701.361328,590.387756 
	C701.780884,592.535950 701.698242,594.838135 702.990540,596.962646 
	C709.489685,591.745728 709.078735,585.185303 707.748962,578.280090 
	C705.419983,581.995544 701.649902,584.796387 701.361328,590.387756 
M310.712036,581.687988 
	C311.639557,585.959961 309.375031,591.704102 315.903656,593.561523 
	C319.438782,588.430542 317.810638,583.145203 311.432312,578.268494 
	C310.457550,578.955566 310.565735,579.976196 310.712036,581.687988 
M611.428345,589.730103 
	C612.306152,594.501404 608.482422,596.050171 605.288696,598.237976 
	C608.689453,597.866028 608.511902,601.285156 610.274353,602.821472 
	C611.654175,598.178833 611.882812,593.889893 611.428345,589.730103 
M611.619385,428.979614 
	C608.504944,424.443909 608.531860,429.452271 606.682861,430.134338 
	C608.508423,431.312225 609.571777,432.641876 611.680603,432.500732 
	C611.680603,431.497284 611.680603,430.551178 611.619385,428.979614 
M412.376495,428.558929 
	C411.451569,427.741364 411.167816,426.143463 409.453461,426.180176 
	C407.924713,428.003967 408.233734,430.081757 408.588989,432.573822 
	C410.136200,431.314575 412.634247,431.731537 412.376495,428.558929 
M408.403931,599.542847 
	C410.167786,602.862000 410.167786,602.862000 412.757660,599.606995 
	C409.993103,597.316406 409.993103,597.316406 408.403931,599.542847 
z"/>
<path fill="#000000" opacity="1.000000" stroke="none" 
	d="
M396.769653,837.233765 
	C395.483490,837.232727 394.651093,837.231934 393.818726,837.236267 
	C387.337677,837.269714 387.338531,837.269958 387.275055,843.856445 
	C387.265442,844.855103 387.245453,845.853577 387.227875,846.852173 
	C387.192871,848.839783 386.273132,849.971863 384.195984,849.981201 
	C382.234924,849.990112 380.910583,849.114868 380.897675,847.077148 
	C380.844910,838.754517 380.873840,830.431458 380.894531,822.108521 
	C380.898956,820.328186 381.839752,819.287415 383.629333,819.216187 
	C385.491730,819.142151 386.891388,819.814331 387.162140,821.898132 
	C387.205017,822.227783 387.185181,822.567871 387.249512,822.892151 
	C387.747284,825.401794 385.911652,828.848145 388.622803,830.298523 
	C391.694489,831.941833 395.476196,830.927979 398.950378,830.885437 
	C400.748596,830.863464 401.611603,829.724731 401.635376,827.953125 
	C401.659943,826.122253 401.710785,824.290588 401.681183,822.460449 
	C401.649292,820.488647 402.416718,819.233887 404.514252,819.163696 
	C406.484741,819.097717 407.850952,820.095886 407.875763,822.052368 
	C407.983368,830.536316 407.995483,839.022522 407.921112,847.506836 
	C407.905609,849.277954 406.577362,850.071594 404.835602,850.049805 
	C403.081482,850.027832 401.968201,849.212708 401.867188,847.395020 
	C401.765686,845.568604 401.637634,843.724426 401.777832,841.907898 
	C402.038971,838.524292 400.758545,836.828735 396.769653,837.233765 
z"/>
<path fill="#000000" opacity="1.000000" stroke="none" 
	d="
M674.239990,825.113098 
	C671.650452,825.222046 669.103821,824.865906 669.264587,828.192932 
	C669.422058,831.453064 672.033081,830.853699 674.104675,831.026978 
	C675.425720,831.137451 676.766357,831.146484 678.062317,831.390991 
	C679.896973,831.737183 680.307251,833.108643 680.197510,834.775513 
	C680.090454,836.401428 679.175476,837.151123 677.632263,837.218506 
	C675.971985,837.291016 674.307678,837.385559 672.648560,837.342102 
	C670.080872,837.274963 669.110535,838.496765 669.140076,840.999695 
	C669.169312,843.470215 670.085510,844.698730 672.686340,844.622620 
	C675.675842,844.535278 678.671021,844.611816 681.663147,844.656921 
	C683.408997,844.683228 685.068542,844.887939 685.137817,847.229370 
	C685.213684,849.789551 683.520386,850.223450 681.518005,850.224182 
	C676.530457,850.226074 671.542969,850.182312 666.555420,850.182190 
	C663.867493,850.182129 662.671936,848.906128 662.688171,846.191833 
	C662.734924,838.377930 662.711853,830.563171 662.645569,822.749329 
	C662.624268,820.238403 663.816711,819.031555 666.224060,819.016174 
	C671.376526,818.983276 676.529907,818.982300 681.681885,819.047424 
	C683.556213,819.071106 684.896362,819.927979 684.933655,822.028503 
	C684.972595,824.223450 683.468079,824.864319 681.669189,824.965149 
	C679.347412,825.095093 677.016846,825.068604 674.239990,825.113098 
z"/>
<path fill="#000000" opacity="1.000000" stroke="none" 
	d="
M489.319824,819.531494 
	C492.968597,818.753357 494.355927,820.193359 494.270813,823.419067 
	C494.196411,826.238159 494.255341,829.060791 494.255341,832.075256 
	C501.365784,829.408813 502.355255,818.026733 512.692139,819.747986 
	C511.274780,823.446838 508.775787,825.958374 506.345612,828.196533 
	C502.733246,831.523499 503.294708,834.141541 506.219482,837.420715 
	C509.383026,840.967468 512.293518,844.763977 514.947754,849.708496 
	C504.274902,851.709473 503.978912,840.939087 497.925476,837.766541 
	C494.280426,838.972595 494.244537,842.112610 494.270203,845.350403 
	C494.287170,847.488098 494.588257,849.941406 491.335907,850.069702 
	C487.870728,850.206482 487.822083,847.725708 487.813782,845.310608 
	C487.788635,837.992554 487.791260,830.674316 487.808929,823.356201 
	C487.812103,822.043152 487.701691,820.656677 489.319824,819.531494 
z"/>
<path fill="#000000" opacity="1.000000" stroke="none" 
	d="
M550.193726,849.017212 
	C548.572571,845.957520 547.890442,842.525085 543.533386,843.046509 
	C539.236145,843.560730 534.009277,841.204041 531.886475,847.685120 
	C530.927612,850.612976 528.323364,850.726562 525.208618,849.260071 
	C526.175232,844.166931 529.179443,839.883423 531.009277,835.176147 
	C532.692078,830.847046 534.827576,826.695984 536.637329,822.413086 
	C537.395020,820.620117 538.158569,819.073730 540.420837,819.081299 
	C542.549561,819.088501 543.712097,820.329346 544.539978,822.127014 
	C548.014038,829.670532 551.559631,837.181458 554.977783,844.750061 
	C555.617188,846.165771 557.045227,847.887146 555.543518,849.327698 
	C554.102051,850.710388 552.161377,850.353333 550.193726,849.017212 
M540.505981,836.722290 
	C547.223816,834.375977 540.734619,831.760925 540.673218,829.252197 
	C540.335693,831.750671 534.255615,833.562439 540.505981,836.722290 
z"/>
<path fill="#000000" opacity="1.000000" stroke="none" 
	d="
M434.035919,850.276611 
	C423.961304,850.245117 423.838562,850.241516 424.115967,840.855835 
	C424.292450,834.883545 424.910553,828.925049 424.354095,822.943298 
	C424.091553,820.121094 425.652161,819.023499 428.230865,819.010315 
	C433.214905,818.984924 438.199341,818.962646 443.183075,819.005188 
	C445.182465,819.022217 446.900391,819.657104 446.888367,822.069641 
	C446.875702,824.620728 444.854248,824.840271 443.016571,824.944946 
	C440.198761,825.105408 437.370117,825.124084 434.546326,825.115723 
	C432.118530,825.108521 430.303406,825.551697 430.341125,828.622498 
	C430.377289,831.562988 432.238007,831.675049 434.373169,831.681335 
	C435.866364,831.685669 437.363617,831.742737 438.851105,831.869629 
	C440.416687,832.003174 441.220642,832.932983 441.214355,834.508423 
	C441.208038,836.086975 440.389404,836.987061 438.824036,837.122498 
	C437.667358,837.222534 436.502350,837.257568 435.340790,837.263245 
	C432.786346,837.275696 430.322784,837.030823 430.263428,840.901367 
	C430.197845,845.179077 433.001556,844.663269 435.654968,844.675659 
	C438.313263,844.688049 440.972015,844.664978 443.629852,844.704102 
	C445.379395,844.729858 447.043030,844.970215 447.126862,847.277283 
	C447.219971,849.840027 445.486328,850.241821 443.496887,850.260010 
	C440.506409,850.287292 437.515533,850.273376 434.035919,850.276611 
z"/>
<path fill="#000000" opacity="1.000000" stroke="none" 
	d="
M579.162842,830.628906 
	C581.988831,828.398376 583.196106,825.223633 584.877258,822.382996 
	C586.710571,819.285461 589.065857,818.398682 592.704102,819.940735 
	C591.992310,823.920532 589.359741,826.804077 587.265503,829.831421 
	C583.942871,834.634521 581.539551,839.521912 582.303528,845.588074 
	C582.579102,847.776489 582.420471,850.114075 579.182007,850.101379 
	C576.068115,850.089172 575.540710,847.857361 575.911865,845.635864 
	C577.249512,837.628235 572.279968,832.151367 568.521973,826.137695 
	C567.328064,824.227173 565.508423,822.565308 565.509949,819.738708 
	C568.652649,818.457947 571.219360,818.725952 573.175171,821.823120 
	C575.037109,824.771545 576.982666,827.667175 579.162842,830.628906 
z"/>
<path fill="#000000" opacity="1.000000" stroke="none" 
	d="
M349.696198,834.087769 
	C349.693481,832.437866 349.575928,831.258362 349.710724,830.108398 
	C350.148407,826.375122 348.521973,824.951050 344.842163,825.245056 
	C342.719025,825.414734 340.176208,825.589233 340.248505,822.272278 
	C340.315308,819.204834 342.620453,819.077942 344.877655,819.069275 
	C350.207733,819.048767 355.538849,819.003845 360.867706,819.086975 
	C362.999146,819.120239 365.436523,818.985596 365.367493,822.297546 
	C365.305908,825.253418 363.202606,825.394714 361.169128,825.187378 
	C357.067535,824.769165 355.971710,826.718994 356.130890,830.473694 
	C356.349457,835.628052 356.181122,840.798706 356.180634,845.962402 
	C356.180420,848.156677 355.739471,850.009705 352.989380,850.044067 
	C350.252411,850.078247 349.719055,848.304626 349.722046,846.065002 
	C349.727203,842.233887 349.706635,838.402832 349.696198,834.087769 
z"/>
<path fill="#000000" opacity="1.000000" stroke="none" 
	d="
M646.525757,844.676208 
	C649.212280,844.800598 649.726257,846.150452 649.365479,848.093201 
	C649.065308,849.709778 647.881287,850.194641 646.443054,850.198120 
	C641.633057,850.209717 636.822571,850.209290 632.012939,850.154968 
	C630.026672,850.132568 628.914062,849.006836 628.896484,847.035217 
	C628.822449,838.740967 628.802063,830.446289 628.764587,822.151733 
	C628.755249,820.086548 629.883301,819.131836 631.855225,819.095703 
	C634.099060,819.054626 635.226196,820.214294 635.236938,822.441406 
	C635.262512,827.749939 635.635010,833.089661 635.184814,838.358459 
	C634.742432,843.536682 636.643005,845.370422 641.615234,844.670044 
	C643.078186,844.463928 644.596863,844.653381 646.525757,844.676208 
z"/>
<path fill="#000000" opacity="1.000000" stroke="none" 
	d="
M613.296326,845.752197 
	C613.320984,848.418518 612.915039,850.254272 610.095947,850.118408 
	C607.369690,849.987061 606.961975,848.018066 606.949158,845.937988 
	C606.902222,838.323669 606.918823,830.708740 606.959412,823.094299 
	C606.971252,820.873169 607.715027,819.153931 610.385559,819.237000 
	C613.227356,819.325378 613.312927,821.325378 613.308289,823.430237 
	C613.292358,830.714233 613.301514,837.998169 613.296326,845.752197 
z"/>
</svg>