<svg version="1.1" id="Layer_1" xmlns="http://www.w3.org/2000/svg" xmlns:xlink="http://www.w3.org/1999/xlink" x="0px" y="0px"
	 width="100%" viewBox="0 0 1024 576" enable-background="new 0 0 1024 576" xml:space="preserve">
<path fill="#000000" opacity="1.000000" stroke="none" 
	d="
M555.720947,237.506973 
	C563.979736,232.919968 575.558960,234.917007 579.720398,242.993515 
	C584.983032,253.207245 592.446899,262.450409 593.936340,274.572906 
	C595.541748,287.639557 596.168091,300.719452 591.471924,313.026123 
	C587.937683,322.287872 582.211975,330.713348 576.586243,339.265839 
	C576.391235,330.604645 574.636719,322.075226 577.607361,313.776001 
	C579.178223,309.387299 580.935486,305.059570 581.716125,300.449585 
	C582.035828,298.561279 582.596924,296.483521 580.269714,294.099396 
	C573.596008,299.503296 566.894287,304.929901 560.372375,310.210846 
	C561.272217,312.980804 562.887085,314.263947 564.301514,315.605560 
	C571.631714,322.558228 573.415588,331.231079 572.157410,340.790344 
	C571.648438,344.657471 570.403015,348.621552 566.955261,350.699097 
	C555.773071,357.437073 545.200623,365.573975 532.731018,369.671082 
	C518.142029,374.464630 503.180634,373.518829 488.465485,369.208679 
	C488.146118,369.115143 487.799072,369.049042 487.525909,368.874603 
	C477.175262,362.265778 465.888275,357.216248 455.954102,349.918762 
	C455.173096,349.345062 454.330780,348.678314 454.886017,346.917267 
	C460.807434,347.905212 466.380341,351.129669 472.532349,351.016357 
	C481.518433,350.850922 489.334930,354.412994 497.210510,358.036133 
	C500.014038,359.325867 503.063477,360.784790 506.449280,357.471649 
	C500.953827,351.082031 496.606995,343.875610 492.171692,336.964264 
	C488.956085,337.097076 487.585846,343.101898 483.898560,338.889252 
	C480.093414,334.542023 486.750671,333.814148 486.666077,330.387268 
	C485.062653,328.062012 482.740082,326.061157 479.895966,324.462280 
	C476.648651,326.872620 474.921906,330.088470 473.421265,333.403778 
	C470.875366,339.028229 467.264191,343.726227 460.720551,344.023041 
	C453.664520,344.343109 447.449402,341.420990 443.691132,335.336243 
	C434.050781,319.728149 426.458344,303.461365 428.609222,284.240234 
	C429.819733,273.422913 430.865387,262.779633 438.158264,253.810196 
	C440.616913,250.786316 441.779083,246.726974 443.670319,243.214355 
	C444.479309,241.711807 444.920288,239.721741 447.961060,239.242798 
	C446.128296,248.399200 448.949188,257.528595 445.596497,266.343903 
	C444.118073,270.231232 442.816467,274.198181 441.684601,278.199738 
	C441.120148,280.195282 440.492279,282.452484 443.032196,284.593933 
	C449.703491,279.326019 456.426483,274.017273 463.334442,268.562469 
	C461.907013,265.593292 459.488037,263.770050 457.555115,261.593140 
	C450.312164,253.435699 449.128143,244.043060 452.199982,234.014908 
	C454.201569,227.480606 460.178680,224.728561 465.743652,222.225143 
	C471.416016,219.673447 476.425140,216.249115 481.650146,212.997086 
	C492.527161,206.227264 504.897766,205.410690 517.352844,206.178665 
	C529.207214,206.909607 540.113708,209.949081 549.506897,218.023621 
	C554.081421,221.955887 560.643616,223.213104 565.435669,227.222092 
	C566.894836,228.442749 568.958740,229.172226 569.132446,231.662369 
	C566.793945,232.273193 564.889648,231.014343 562.879150,230.470398 
	C556.767761,228.817017 550.668945,227.480026 544.243530,227.332565 
	C537.742981,227.183380 532.643127,222.521347 526.605591,220.679947 
	C523.655151,219.780090 520.686768,218.059036 517.450134,221.173386 
	C522.145081,227.936417 526.833801,234.690460 531.510498,241.427246 
	C532.307922,241.209671 532.863342,241.205231 533.218994,240.936432 
	C535.088257,239.523819 536.481018,236.810333 539.470764,239.384369 
	C542.641357,242.114075 539.838806,243.713425 538.495972,245.562531 
	C536.006653,248.990158 539.320618,250.198502 540.916748,252.025360 
	C542.710999,254.078949 544.324036,253.397461 545.902466,251.607162 
	C547.573975,249.711319 548.936279,247.653107 549.900818,245.314331 
	C551.124451,242.347031 552.793701,239.687210 555.720947,237.506973 
M525.645935,346.083313 
	C522.849609,350.089355 520.053223,354.095428 517.286316,358.059387 
	C520.682251,360.564850 523.708252,359.361603 526.549011,357.974854 
	C534.970825,353.863739 543.682007,351.106293 553.144897,350.579559 
	C556.760681,350.378296 560.443115,349.123108 563.296326,344.979797 
	C551.407410,343.013245 550.838928,330.766052 543.714294,324.715424 
	C540.607117,326.396973 537.765259,328.800415 537.553467,329.958282 
	C537.112793,332.367249 539.353699,333.326843 540.376709,334.930878 
	C541.393616,336.525421 541.031616,337.696259 539.772705,338.860779 
	C538.386963,340.142639 537.039551,340.619232 535.424072,339.149384 
	C534.375488,338.195312 533.660522,336.634338 531.487000,336.842865 
	C529.740845,339.606476 527.887817,342.539215 525.645935,346.083313 
M482.320984,252.553101 
	C483.709961,250.654266 487.637939,250.017502 485.540588,246.385559 
	C484.259430,244.166977 480.704712,242.543030 484.126038,239.356415 
	C487.549652,236.167694 488.892883,240.558960 491.254700,241.219604 
	C491.404663,241.261536 491.576569,241.225067 492.488983,241.225067 
	C496.536499,234.446426 501.112213,227.507462 506.173218,220.872223 
	C503.584778,219.021301 501.447662,218.948090 499.355652,219.746857 
	C496.100128,220.989883 492.904541,222.395798 489.713959,223.801605 
	C484.586945,226.060593 479.723328,228.295853 473.616180,227.737534 
	C469.114838,227.326035 464.196594,228.913971 460.148804,233.465027 
	C468.742371,235.742905 472.235168,242.273834 475.407227,249.145905 
	C476.020996,250.475571 477.153717,251.560379 478.006683,252.786224 
	C479.225891,254.538498 480.491333,253.961380 482.320984,252.553101 
M501.586884,294.945282 
	C504.163635,297.542053 506.765472,300.114594 509.308075,302.744385 
	C510.926727,304.418579 512.330811,304.971893 514.321716,303.034088 
	C518.710693,298.762115 523.300049,294.695984 528.346985,290.049316 
	C522.804993,284.637177 518.194458,280.131927 513.580261,275.630432 
	C512.471802,274.549103 511.316895,274.292603 510.100586,275.476135 
	C505.491089,279.961426 500.880524,284.445618 495.085236,290.083130 
	C497.595367,291.907715 499.345428,293.179810 501.586884,294.945282 
M442.569824,294.792786 
	C440.066528,297.660583 441.235138,300.735352 442.273468,303.651581 
	C445.050079,311.449280 448.441376,319.066986 447.382782,327.706665 
	C447.137238,329.710754 448.017944,331.567505 450.642761,332.844482 
	C450.950073,323.214630 458.000214,317.578827 463.462646,310.670013 
	C456.392944,305.242462 450.337402,299.326324 442.569824,294.792786 
M581.705994,282.509583 
	C582.178467,279.644104 581.749451,276.883820 580.728027,274.194855 
	C577.829407,266.564087 575.126221,258.911774 575.793152,250.513046 
	C575.943726,248.616699 575.608582,246.576111 572.571167,246.105667 
	C572.346069,254.308395 567.677246,259.928009 562.479492,265.173981 
	C560.373413,267.299622 560.118225,268.856995 562.621582,270.801880 
	C567.738220,274.777100 572.737183,278.903503 577.796387,282.952911 
	C578.951050,283.877045 580.127075,285.167450 581.705994,282.509583 
M505.063232,270.868652 
	C507.703644,266.361603 503.227417,265.955048 502.268616,264.830841 
	C493.568451,273.571198 485.067841,282.111084 476.466705,290.751953 
	C478.171448,292.369720 479.692657,296.226562 483.717041,292.101746 
	C490.571472,285.076202 497.652924,278.272156 505.063232,270.868652 
M488.388885,297.033478 
	C487.058289,298.360352 485.656647,299.631897 487.474701,301.630310 
	C491.912292,306.508026 496.311890,311.420319 500.726746,316.318695 
	C503.868317,313.763855 505.612396,312.314514 506.644073,309.417969 
	C502.180176,305.041351 497.542114,300.570465 493.000885,296.003296 
	C491.222198,294.214417 490.092621,295.391296 488.388885,297.033478 
M519.148743,265.917267 
	C517.908875,267.327057 516.510925,268.829224 518.276733,270.656830 
	C522.835876,275.375366 527.497498,279.994781 532.076111,284.611359 
	C534.448914,282.802826 536.207336,281.577667 537.314392,278.729309 
	C532.754333,274.290527 527.985229,269.706421 523.291748,265.046051 
	C521.769470,263.534576 520.685181,264.176239 519.148743,265.917267 
M520.012878,313.344360 
	C520.950256,314.098785 522.008911,314.893311 523.116028,313.894348 
	C528.105347,309.392273 533.292664,305.065216 537.501099,299.248901 
	C535.316895,297.683838 534.294373,295.430695 532.008545,294.843384 
	C527.685669,299.089447 523.597351,303.213867 519.380432,307.202240 
	C517.188049,309.275879 517.093506,311.060272 520.012878,313.344360 
M462.532959,241.956573 
	C461.054138,241.414108 459.725128,240.075821 457.965576,241.034576 
	C456.111053,249.506317 459.696289,257.336517 466.491241,259.743011 
	C469.340179,252.843781 468.178162,246.802094 462.532959,241.956573 
M558.191650,260.100006 
	C562.285278,256.327087 565.647339,252.136032 566.307251,246.324890 
	C566.500854,244.618973 566.649414,242.876205 565.060242,241.837524 
	C563.512146,240.825714 561.899109,241.478058 560.382996,242.292557 
	C554.742310,245.323074 553.289551,255.217880 558.191650,260.100006 
M558.202698,318.867126 
	C557.766296,318.711090 556.961853,318.387177 556.945618,318.422760 
	C554.941284,322.817474 554.474487,327.383392 556.394775,331.852356 
	C557.973755,335.527100 560.715393,338.001740 565.281311,338.101044 
	C567.299194,330.144379 563.977112,324.368927 558.202698,318.867126 
M457.408264,335.694244 
	C460.822876,339.695068 463.552216,336.653778 465.472656,334.333313 
	C469.513824,329.450470 467.917755,323.850952 466.830200,317.271362 
	C460.991302,322.635651 456.892883,327.550873 457.408264,335.694244 
M463.138062,288.070679 
	C455.970673,282.398102 453.909058,282.612244 448.926208,289.601715 
	C449.992676,291.741577 451.977417,293.045227 453.870148,294.252228 
	C457.148193,296.342651 463.437836,292.520966 463.138062,288.070679 
M570.805847,285.736115 
	C566.823364,283.087402 562.503235,284.577576 558.940308,289.829010 
	C565.272034,296.587708 569.019775,296.499939 574.129517,289.458313 
	C573.803040,287.842896 572.361511,287.170776 570.805847,285.736115 
M517.327271,333.399261 
	C518.538940,335.624023 519.750671,337.848785 521.094116,340.315460 
	C528.533264,330.637634 528.533386,329.991974 521.346252,325.392548 
	C519.381470,327.520844 515.932251,328.716217 517.327271,333.399261 
M518.528870,250.783813 
	C520.050537,252.260254 521.448547,254.338364 523.715393,251.694565 
	C525.440674,249.682343 528.509033,248.126709 525.706116,244.769150 
	C524.177551,242.938202 523.453125,240.437622 520.703003,238.668808 
	C520.224548,242.985764 514.035767,245.230438 518.528870,250.783813 
M515.313416,343.946899 
	C514.246521,341.818268 514.230286,339.039062 511.421844,337.690887 
	C509.590698,339.587097 508.980286,341.983887 508.047943,344.276611 
	C506.826874,347.279510 507.861084,349.370270 510.000519,351.330872 
	C511.137573,352.372864 512.200562,352.710938 513.486023,351.588989 
	C515.662598,349.689301 516.972961,347.566193 515.313416,343.946899 
M503.229645,326.661255 
	C499.558746,324.704376 498.007782,328.281250 497.387177,330.017822 
	C495.813477,334.421204 500.275116,336.559753 502.072510,340.021667 
	C508.444672,329.496338 508.577423,332.056000 503.229645,326.661255 
M559.528870,302.364594 
	C560.149231,301.663605 561.369446,301.133942 560.776794,299.963135 
	C557.923340,294.325714 551.567017,294.223328 547.995300,299.714111 
	C552.995605,307.101532 553.125122,307.137085 559.528870,302.364594 
M467.703796,305.403137 
	C472.224518,306.751526 473.291443,302.602997 474.704926,300.241150 
	C475.963989,298.137390 472.988525,296.089172 471.369446,295.548859 
	C467.128113,294.133545 465.570526,298.525818 462.700867,300.170013 
	C463.527649,302.740723 465.646545,303.608490 467.703796,305.403137 
M473.391815,282.097961 
	C477.550201,276.471466 469.997620,276.407745 469.652924,272.882477 
	C465.143524,275.360840 464.786346,275.671631 462.292480,279.166779 
	C464.161835,280.505981 466.138611,281.722748 467.875519,283.218079 
	C469.939056,284.994598 471.439423,284.204315 473.391815,282.097961 
M503.358124,239.918686 
	C502.999084,239.436142 502.787323,238.296570 502.083252,238.764511 
	C496.245392,242.644424 496.186859,248.848389 501.866028,252.857742 
	C507.743256,248.684616 507.740692,248.685928 504.673859,242.712097 
	C504.294525,241.973206 503.960022,241.211288 503.358124,239.918686 
M550.539551,276.126587 
	C548.515930,278.051117 547.527466,279.812408 550.054260,282.350708 
	C552.257507,284.564056 554.006042,284.257263 555.994202,282.456024 
	C557.526794,281.067535 559.909912,280.663879 560.913452,278.143829 
	C558.638855,276.299103 556.376221,274.464050 553.757385,272.340149 
	C552.670776,273.633514 551.831421,274.632599 550.539551,276.126587 
M514.864441,235.505142 
	C517.312012,230.960312 514.975769,228.223648 511.505127,225.797012 
	C505.863556,230.815613 506.023865,234.942581 511.841797,239.997269 
	C513.592712,239.321899 513.972351,237.626663 514.864441,235.505142 
M540.760071,272.743835 
	C545.243469,274.673553 546.882751,270.813751 547.900024,268.264252 
	C549.395752,264.515961 545.129822,264.519073 543.103943,262.657104 
	C541.212097,265.105042 538.590820,266.419434 537.611816,269.397919 
	C538.511719,270.378021 539.390320,271.334991 540.760071,272.743835 
M543.478882,315.367462 
	C545.433655,314.581116 548.419373,314.096039 548.195374,311.733246 
	C547.893799,308.552673 545.076172,306.603760 542.254883,304.698883 
	C540.585449,306.527313 538.467590,307.620209 537.683655,310.055176 
	C538.940491,312.273804 540.726257,313.928741 543.478882,315.367462 
M474.745422,267.483887 
	C475.673615,270.466553 477.677673,272.528259 480.122681,274.161469 
	C486.167023,270.385376 486.373138,268.929657 481.857758,265.016327 
	C478.508942,262.114014 476.970062,265.420502 474.745422,267.483887 
M484.225128,311.148712 
	C486.261322,307.222961 482.208374,306.872925 480.794464,304.667938 
	C477.723328,306.933777 475.486572,309.286652 474.953339,312.672577 
	C478.697327,316.733826 481.389984,315.054077 484.225128,311.148712 
M529.265930,261.364624 
	C533.773682,266.041779 534.998230,260.820374 537.723511,258.842560 
	C536.452820,257.476044 535.433594,256.435822 534.478271,255.339828 
	C532.934204,253.568451 531.427734,252.998352 529.596741,255.045837 
	C527.959473,256.876617 525.560730,258.480469 529.265930,261.364624 
M489.907745,324.222260 
	C493.296539,326.669495 494.937561,323.160980 495.478119,321.590210 
	C496.818726,317.694489 492.666016,316.907684 490.710175,314.806213 
	C488.470306,316.170441 486.776947,317.631073 485.772430,319.763550 
	C486.478943,321.671295 488.256592,322.463745 489.907745,324.222260 
M487.611664,256.947144 
	C483.509827,261.674011 489.508575,261.727020 490.431366,264.227661 
	C497.603485,259.199524 497.675079,258.276520 491.330627,253.816360 
	C490.290253,254.672119 489.171265,255.592529 487.611664,256.947144 
M545.410095,286.928284 
	C544.287354,285.995544 543.413574,284.636292 541.605408,284.732269 
	C539.988098,286.074646 538.228271,287.338623 537.410522,289.533630 
	C538.408447,291.765137 540.090454,293.245605 542.520142,294.441071 
	C544.032349,292.225159 548.895630,291.873138 545.410095,286.928284 
M529.169800,317.542023 
	C525.089294,322.086243 530.398804,322.722290 531.974548,325.136200 
	C534.283936,323.506927 536.245972,322.074707 537.421936,319.519379 
	C535.076050,317.674438 533.865417,313.004974 529.169800,317.542023 
M511.687439,315.687531 
	C509.718506,316.866364 508.050690,318.316528 506.937378,320.701324 
	C509.259216,321.985687 510.105347,326.069214 513.809082,323.416992 
	C517.392151,320.851196 517.116821,319.528046 511.687439,315.687531 
M515.923462,258.003601 
	C514.639038,256.351044 513.559387,254.449997 511.300385,254.019699 
	C506.009827,258.468597 506.107147,259.775116 511.950623,263.130371 
	C513.660400,261.951996 515.588562,260.946503 515.923462,258.003601 
M513.803223,363.731964 
	C511.051239,361.893860 509.836060,363.906677 508.220184,365.785980 
	C509.565155,367.291534 510.524384,369.221588 512.672974,368.125519 
	C514.043762,367.426117 516.276550,366.433777 513.803223,363.731964 
M586.662415,290.999756 
	C588.472351,293.178955 590.061096,292.018066 590.903809,290.295837 
	C592.064575,287.923492 590.085571,286.927094 588.372009,285.834381 
	C586.998352,287.279724 585.412292,288.359619 586.662415,290.999756 
M508.736847,212.707153 
	C510.510101,216.729828 512.661255,215.300201 515.128418,213.245956 
	C513.313843,210.253876 511.602997,208.383133 508.736847,212.707153 
M432.769897,288.098663 
	C431.101288,289.968384 432.505463,291.007996 433.873352,291.980621 
	C435.145264,292.885010 435.969849,292.072388 436.695129,291.084015 
	C437.788055,289.594666 437.104553,288.321686 436.186279,287.102661 
	C434.797821,285.259460 434.064606,286.972534 432.769897,288.098663 
z"/>
<path fill="#000000" opacity="1.000000" stroke="none" 
	d="
M468.104340,407.548431 
	C470.902191,407.594391 470.350616,404.726501 471.852020,403.840729 
	C474.748993,406.101593 475.122559,411.000458 472.809235,415.312378 
	C467.861145,410.736298 467.861145,410.736298 464.944153,415.280273 
	C462.282837,412.578857 462.055664,408.667725 464.293976,403.965790 
	C466.773102,403.861694 465.694611,407.246765 468.104340,407.548431 
z"/>
<path fill="#000000" opacity="1.000000" stroke="none" 
	d="
M508.613159,413.013184 
	C505.309845,411.069702 507.131622,415.999390 503.933899,415.084564 
	C501.927979,411.701508 502.767822,407.773499 503.694519,404.052399 
	C506.604156,402.837891 506.069092,405.624359 507.219299,406.168518 
	C509.058228,405.998108 509.758057,403.232300 512.513062,404.349640 
	C509.594360,408.047943 511.075745,411.488373 513.602783,414.825623 
	C510.912811,416.351288 510.015656,414.380615 508.613159,413.013184 
z"/>
<path fill="#000000" opacity="1.000000" stroke="none" 
	d="
M574.497803,415.955078 
	C572.037231,415.873047 569.335938,416.580444 568.964050,413.561096 
	C568.588196,410.509125 567.560059,406.802216 569.683594,404.490631 
	C571.463074,402.553619 574.749146,403.167114 577.370544,404.107666 
	C577.127747,407.496613 574.344116,405.842896 573.143250,407.017456 
	C573.620300,408.328857 575.722900,407.842346 575.865356,409.574371 
	C576.049377,411.308441 573.803040,410.778931 573.340210,412.037140 
	C574.310608,413.500916 576.762207,412.133850 577.418823,414.280914 
	C577.271240,415.774353 575.961182,415.677063 574.497803,415.955078 
z"/>
<path fill="#000000" opacity="1.000000" stroke="none" 
	d="
M521.251465,405.608246 
	C522.289124,403.701355 523.735413,402.844482 524.798157,404.633362 
	C526.737793,407.898560 529.081848,411.125397 529.203125,416.141235 
	C525.309998,413.433258 521.807922,412.263306 518.258789,416.149628 
	C517.231750,411.625183 520.116089,409.047272 521.251465,405.608246 
z"/>
<path fill="#000000" opacity="1.000000" stroke="none" 
	d="
M483.574463,403.378967 
	C485.311981,403.767853 486.992676,403.071198 488.047028,404.667755 
	C487.478088,407.343414 484.906006,405.681305 483.266907,406.984528 
	C484.235748,408.459229 489.469849,410.371887 483.139587,411.606812 
	C484.441376,413.696991 487.055115,411.992126 488.152893,414.371735 
	C486.474457,417.138092 483.435150,416.465088 481.432098,415.617981 
	C477.469635,413.942169 480.057404,410.090942 479.622223,407.223755 
	C479.239227,404.700439 480.214325,402.981750 483.574463,403.378967 
z"/>
<path fill="#000000" opacity="1.000000" stroke="none" 
	d="
M532.888672,405.820801 
	C534.363770,403.534180 534.363770,403.534180 537.516846,406.054474 
	C539.428223,406.372681 540.024231,403.306488 542.687134,404.335236 
	C541.903381,408.207062 538.736206,411.247070 538.913330,416.425201 
	C534.739868,413.269806 535.919434,408.492615 532.888672,405.820801 
z"/>
<path fill="#000000" opacity="1.000000" stroke="none" 
	d="
M560.667419,416.007996 
	C555.257141,414.693237 553.853943,408.147827 557.919983,403.644318 
	C561.253845,406.224457 556.139587,414.030853 563.881287,413.344238 
	C564.275940,416.121552 562.404480,415.740631 560.667419,416.007996 
z"/>
<path fill="#000000" opacity="1.000000" stroke="none" 
	d="
M455.292236,407.529968 
	C453.457123,410.051605 455.294678,413.048981 453.303711,415.497681 
	C448.722260,413.307465 453.538788,406.932892 447.643188,405.450195 
	C451.322937,402.747131 454.276978,403.729675 457.093414,404.095184 
	C458.175995,406.161377 456.473999,406.495056 455.292236,407.529968 
z"/>
<path fill="#000000" opacity="1.000000" stroke="none" 
	d="
M549.852539,404.029358 
	C552.083679,408.012573 551.264587,411.727966 550.551941,416.532593 
	C546.951965,412.216522 546.899048,407.153809 549.852539,404.029358 
z"/>
</svg>